<?xml version="1.0" standalone="no"?>
<!DOCTYPE svg PUBLIC "-//W3C//DTD SVG 20010904//EN"
 "http://www.w3.org/TR/2001/REC-SVG-20010904/DTD/svg10.dtd">
<svg version="1.0" xmlns="http://www.w3.org/2000/svg"
 width="1024.000000pt" height="1024.000000pt" viewBox="0 0 1024.000000 1024.000000"
 preserveAspectRatio="xMidYMid meet">
<metadata>
Created by potrace 1.14, written by Peter Selinger 2001-2017
</metadata>
<g transform="translate(0.000000,1024.000000) scale(0.100000,-0.100000)"
fill="#000000" stroke="none">
<path d="M0 5120 l0 -5120 5120 0 5120 0 0 5120 0 5120 -5120 0 -5120 0 0
-5120z m8255 4178 c115 -27 232 -67 300 -101 136 -68 359 -243 480 -375 145
-159 282 -439 339 -692 36 -159 37 -261 34 -3110 -3 -2518 -5 -2801 -19 -2852
-9 -32 -26 -65 -38 -75 -14 -12 -24 -34 -28 -61 -3 -23 -9 -42 -14 -42 -5 0
-6 8 -3 17 5 17 5 17 -6 1 -12 -20 4 -63 20 -53 5 3 2 -15 -7 -41 -11 -34 -18
-42 -25 -33 -7 10 -8 8 -4 -6 7 -26 -50 -149 -65 -140 -6 4 -9 1 -8 -6 3 -15
-27 -89 -35 -89 -3 0 1 15 9 34 14 32 13 33 -8 32 -12 -1 -26 3 -30 9 -5 6 -7
3 -3 -7 3 -10 1 -20 -3 -23 -5 -3 -7 -15 -5 -28 4 -20 4 -20 -4 -2 -5 11 -7
26 -5 32 6 15 2 16 -21 7 -9 -4 -16 -18 -16 -34 0 -16 -5 -32 -11 -36 -8 -4
-9 0 -4 15 4 12 2 21 -4 21 -6 0 -11 -7 -11 -17 0 -9 -3 -14 -6 -10 -4 3 -15
-4 -26 -16 -19 -22 -19 -22 -1 12 10 18 24 35 31 38 6 3 12 11 12 17 0 7 14
34 32 62 49 77 128 269 154 374 58 237 55 63 51 3090 -5 2970 -2 2815 -51
3025 -51 215 -184 451 -349 618 -218 221 -403 327 -672 385 l-120 26 -3020 0
c-2825 -1 -3026 -2 -3120 -18 -169 -30 -312 -97 -510 -242 -116 -85 -186 -153
-286 -279 -106 -134 -163 -231 -206 -350 -17 -48 -60 -243 -74 -340 -8 -48
-10 -966 -9 -2929 1 -1573 3 -2863 5 -2866 2 -4 6 -58 9 -121 2 -63 1 -105 -4
-94 -7 18 -9 18 -15 3 -4 -9 -12 -15 -19 -12 -8 3 -12 -7 -12 -32 0 -20 2 -32
4 -25 7 20 20 12 15 -9 -3 -12 0 -20 6 -20 7 0 11 -8 9 -18 -1 -9 2 -24 7 -32
11 -17 15 -81 5 -75 -21 13 -94 261 -110 375 -15 105 -14 5745 1 5844 6 39 24
126 39 193 49 205 183 472 301 597 31 34 65 71 75 83 35 40 232 200 293 237
154 94 338 159 517 185 33 4 1425 7 3094 6 l3035 -1 110 -26z m-49 -111 c296
-77 485 -197 703 -447 136 -158 230 -338 278 -537 26 -108 26 -110 34 -708 10
-795 10 -4942 -1 -5070 -30 -350 -179 -675 -420 -915 -155 -156 -286 -238
-475 -300 -233 -75 33 -70 -3230 -70 -2033 0 -2958 4 -3020 11 -174 21 -405
106 -538 198 -250 173 -423 388 -501 622 -70 209 -65 6 -66 3179 -1 2609 0
2874 15 2959 63 365 257 659 585 886 159 110 323 177 512 209 48 8 876 11
3045 10 l2978 -1 101 -26z m-7276 -7268 c0 -11 -4 -18 -10 -14 -5 3 -7 12 -3
20 7 21 13 19 13 -6z m8177 -261 c-3 -8 -6 -5 -6 6 -1 11 2 17 5 13 3 -3 4
-12 1 -19z m48 -38 c3 -5 1 -10 -4 -10 -6 0 -11 5 -11 10 0 6 2 10 4 10 3 0 8
-4 11 -10z m-30 -65 c-15 -19 -30 -33 -32 -31 -3 3 8 20 23 40 37 46 44 38 9
-9z m-142 -2 c-20 -31 -50 -63 -58 -63 -4 0 11 20 32 45 42 51 51 57 26 18z
m117 17 c0 -5 -5 -10 -11 -10 -5 0 -7 5 -4 10 3 6 8 10 11 10 2 0 4 -4 4 -10z
m-195 -110 c-10 -11 -21 -18 -23 -15 -3 3 3 12 14 20 27 20 30 18 9 -5z"/>
<path d="M9287 1951 c3 -12 9 -21 14 -21 14 0 11 16 -5 29 -12 10 -13 8 -9 -8z"/>
<path d="M2132 9068 c-92 -9 -176 -31 -277 -72 -161 -66 -264 -136 -388 -265
-161 -168 -243 -312 -309 -546 l-23 -80 -3 -2910 c-3 -3173 -5 -3037 52 -3189
84 -222 313 -472 531 -578 90 -44 237 -92 335 -110 49 -8 810 -12 3025 -15
3291 -4 3029 -9 3225 64 320 119 561 370 684 713 37 101 63 232 75 377 12 135
13 3607 2 4888 l-7 770 -38 120 c-20 65 -65 173 -98 239 -56 110 -72 131 -177
239 -189 194 -382 306 -594 343 -83 15 -365 17 -3017 18 -1609 0 -2958 -2
-2998 -6z m2533 -100 c9 -41 9 -2450 0 -2571 l-7 -92 -1727 3 -1726 3 -3 802
c-2 519 1 839 8 907 29 291 147 516 377 721 129 117 343 219 517 248 28 5 614
9 1303 10 l1251 1 7 -32z m2467 -340 c1 -205 1 -742 -2 -1193 l-5 -820 -130 1
c-442 4 -2167 4 -2202 0 -28 -3 -43 0 -46 8 -7 19 1 2355 8 2367 4 5 471 9
1190 9 l1183 0 4 -372z m1058 348 c83 -23 249 -101 320 -151 70 -49 230 -204
282 -274 90 -119 176 -349 185 -493 l6 -88 -117 0 -116 0 0 138 c0 216 -39
343 -135 452 -79 89 -210 181 -306 216 -76 27 -186 45 -214 34 -24 -9 -25 -12
-25 -104 l0 -94 -93 -7 c-143 -11 -132 -23 -135 138 l-3 137 -34 0 -35 0 0
-242 c0 -134 -3 -267 -7 -296 l-6 -53 -121 3 -121 3 4 263 3 262 -29 0 c-52 0
-53 -4 -53 -277 l0 -253 -115 0 -115 0 0 348 c0 192 3 352 7 356 4 4 210 5
458 4 395 -4 458 -6 515 -22z m45 -250 c92 -24 165 -77 165 -119 0 -17 -6 -18
-65 -13 -36 3 -94 9 -130 12 -72 6 -73 8 -59 97 7 42 13 44 89 23z m280 -180
c84 -86 135 -188 142 -283 3 -44 1 -63 -5 -55 -7 10 -29 13 -78 11 -79 -3
-102 -11 -114 -42 -7 -17 -9 -10 -10 33 -5 163 -18 367 -24 383 -18 39 29 15
89 -47z m-457 -123 l-3 -128 -107 -3 -108 -3 0 131 0 130 110 0 111 0 -3 -127z
m280 70 l24 -6 -4 -937 c-2 -516 -6 -942 -10 -946 -5 -4 -49 -9 -99 -12 -70
-3 -93 -1 -100 9 -10 16 -12 1851 -2 1888 6 23 8 23 87 16 45 -3 91 -9 104
-12z m-284 -269 c3 -9 6 -30 6 -48 l0 -33 -77 -7 c-127 -10 -156 -8 -149 10 3
9 6 31 6 49 l0 34 93 4 c50 1 97 4 103 5 7 1 15 -5 18 -14z m-617 -382 c-4
-207 -7 -570 -7 -808 0 -359 -2 -433 -14 -437 -8 -3 -57 -3 -110 0 l-96 6 0
808 0 808 103 3 c56 2 108 1 116 -1 12 -4 13 -61 8 -379z m297 378 l28 0 -7
-202 c-4 -112 -8 -204 -10 -206 -1 -1 -53 -3 -116 -5 l-114 -2 -3 95 c-2 52 0
145 3 207 8 129 3 125 125 117 36 -2 78 -4 94 -4z m311 -1618 c-3 -9 -31 -12
-107 -10 l-103 3 -3 415 c-2 228 0 555 4 727 l6 312 102 3 101 3 3 -720 c1
-396 0 -726 -3 -733z m943 656 l-3 -663 -115 0 -115 0 0 655 0 655 100 6 c55
3 108 6 118 7 16 2 17 -34 15 -660z m-516 468 c3 -44 6 -51 35 -65 18 -9 33
-25 35 -36 2 -12 13 -22 28 -26 54 -13 68 -22 75 -47 4 -15 9 -234 12 -488 l5
-461 -24 -6 c-12 -4 -60 -7 -105 -7 l-83 0 0 602 c0 376 4 598 9 593 6 -6 11
-32 13 -59z m-1520 -1193 c169 -6 177 -7 181 -27 3 -12 5 -875 6 -1918 1
-1423 -2 -1898 -10 -1904 -7 -4 -54 -9 -105 -12 l-94 -5 30 55 c51 95 58 151
62 503 3 316 3 321 -20 366 -29 60 -96 126 -142 140 -81 26 -1815 32 -1898 7
-44 -13 -136 -106 -153 -155 -11 -29 -14 -117 -14 -378 0 -187 4 -358 8 -379
6 -27 25 -56 62 -95 l53 -56 -92 3 -92 3 2 292 c0 161 2 417 3 570 l1 278 138
-2 c75 -2 542 -1 1037 0 992 3 955 0 1032 65 22 19 45 51 52 73 17 51 34 649
20 713 -21 95 -87 169 -174 195 -33 10 -246 14 -951 16 l-909 3 -57 -26 c-64
-29 -111 -85 -129 -151 -7 -25 -9 -157 -7 -371 3 -312 4 -334 24 -376 12 -25
31 -54 43 -64 11 -11 21 -23 21 -27 0 -4 -32 -7 -71 -6 l-72 2 0 290 c-1 160
0 412 1 562 l2 272 270 0 c148 0 285 3 304 6 45 9 93 57 124 123 21 47 25 72
29 210 7 195 -5 250 -67 306 -23 20 -53 42 -68 48 -15 6 -102 13 -195 16 -190
5 -230 -3 -298 -65 -64 -58 -73 -97 -67 -292 5 -153 8 -175 31 -224 14 -30 38
-64 56 -76 17 -12 31 -26 31 -30 0 -11 -141 6 -154 19 -9 9 -10 164 -4 715 2
99 -1 246 -6 326 -9 145 -9 147 12 153 12 4 26 5 30 2 5 -3 12 -72 16 -152 9
-174 19 -202 94 -252 l50 -34 175 -5 c200 -5 238 1 291 53 59 57 68 90 74 263
6 186 -4 242 -54 299 -56 66 -92 74 -300 70 -175 -3 -180 -4 -227 -31 -50 -30
-87 -78 -107 -139 -14 -46 -35 -49 -44 -7 -9 45 5 228 18 237 26 15 343 20
1156 16 476 -2 945 -7 1042 -11z m2036 -31 c8 -11 11 -30 8 -52 -3 -19 -6
-785 -6 -1702 l0 -1668 -114 0 c-63 0 -117 4 -121 10 -9 15 -11 2287 -2 2297
5 4 35 8 67 8 63 1 90 15 90 49 0 44 -23 59 -96 65 l-69 6 0 380 c0 209 -4
386 -8 393 -13 20 -55 14 -71 -10 -12 -19 -14 -80 -11 -373 2 -192 1 -360 -2
-372 -4 -20 -12 -23 -54 -23 -41 0 -51 -4 -65 -25 -21 -32 -12 -71 18 -79 13
-3 42 -6 66 -6 l42 0 0 -469 c0 -257 -3 -496 -7 -531 l-6 -63 -95 6 c-52 4
-98 9 -101 13 -9 8 -9 1182 -1 1554 4 183 4 322 -2 333 -11 22 -61 23 -79 0
-12 -13 -13 -172 -11 -967 2 -523 1 -973 -3 -999 l-7 -48 -102 3 -101 3 -1
1010 c0 556 -4 1016 -8 1023 -10 17 -51 15 -67 -4 -10 -13 -13 -235 -15 -1190
-1 -646 -3 -1176 -5 -1178 -7 -7 -32 -8 -122 -7 l-87 1 2 748 3 747 43 6 c47
6 62 20 62 60 0 33 -25 55 -74 65 l-39 7 7 359 c8 382 8 388 -39 388 -45 0
-46 -8 -45 -394 l0 -366 -49 0 c-39 0 -53 -4 -61 -19 -24 -46 -5 -73 57 -80
l48 -6 3 -820 c2 -451 0 -848 -3 -882 l-7 -63 -98 0 c-54 0 -101 4 -105 9 -8
15 -5 2103 4 2356 9 241 5 265 -44 265 -52 0 -53 -10 -47 -406 l5 -364 -66 0
c-86 0 -97 -5 -97 -44 0 -47 15 -56 92 -56 l68 0 0 -772 c0 -1037 -9 -1538
-27 -1545 -7 -3 -61 -2 -118 2 l-105 7 0 1714 0 1714 420 2 c231 2 629 2 883
0 418 -3 463 -5 475 -20z m-3671 -132 c51 -31 63 -65 63 -184 0 -59 -4 -108
-10 -111 -5 -3 -10 -2 -10 3 0 5 -6 9 -14 9 -7 0 -13 -7 -12 -16 1 -11 -9 -17
-29 -19 -22 -2 -26 0 -15 7 23 15 3 26 -25 13 -28 -13 -66 -5 -43 9 7 5 13 12
14 16 0 4 4 16 8 25 16 35 2 53 -49 64 -61 15 -135 17 -154 5 -17 -11 -10
-103 8 -109 9 -3 9 -8 0 -18 -9 -12 -4 -14 30 -14 31 0 41 4 41 16 0 13 3 14
14 5 11 -10 16 -8 20 7 7 20 66 38 66 20 0 -4 -9 -8 -20 -8 -17 0 -18 -3 -9
-22 8 -18 18 -23 47 -23 35 0 37 -2 40 -35 2 -19 9 -38 15 -42 9 -6 9 -8 0 -8
-7 0 -13 -5 -13 -10 0 -7 6 -7 18 -1 12 6 23 6 33 -1 11 -8 11 -9 -4 -4 -13 4
-17 1 -15 -11 2 -9 -4 -18 -12 -20 -13 -4 -13 -3 0 6 8 6 11 11 6 11 -5 0 -17
-6 -25 -14 -13 -12 -45 -13 -184 -8 -165 7 -167 8 -195 35 -27 27 -27 27 -30
194 -2 111 0 174 8 188 27 50 78 61 280 64 108 1 129 -2 157 -19z m-1947 -140
c696 -1 1270 -4 1276 -8 6 -4 14 -58 18 -122 4 -63 11 -187 16 -275 7 -108 6
-235 -1 -390 -7 -136 -12 -747 -13 -1490 l-1 -1260 -68 -5 c-61 -4 -89 -1 -89
11 0 2 13 29 29 59 l28 55 0 390 c0 382 0 391 -22 430 -29 54 -66 91 -116 117
-40 21 -56 23 -330 26 -209 3 -301 1 -333 -8 -54 -15 -125 -76 -162 -138 l-27
-47 0 -350 c0 -265 4 -369 15 -428 11 -61 17 -75 25 -64 9 13 17 11 49 -16
l37 -32 -145 -1 c-102 -1 -146 2 -146 10 0 6 10 40 22 76 21 61 22 87 26 400
3 239 0 352 -9 393 -22 107 -96 175 -213 196 -33 6 -177 11 -320 11 -253 0
-263 -1 -311 -24 -54 -25 -93 -64 -128 -130 -22 -40 -22 -48 -21 -406 0 -337
2 -371 21 -439 11 -40 23 -69 27 -63 3 5 3 18 -1 28 -5 13 4 10 30 -12 l37
-29 -32 -7 c-18 -4 -87 -7 -153 -8 -66 0 -135 -3 -154 -7 l-34 -6 55 49 c54
48 64 66 82 155 11 54 8 675 -4 720 -14 52 -108 151 -156 164 -16 4 -162 9
-324 12 -283 4 -297 4 -352 -17 -76 -28 -99 -48 -133 -117 l-30 -58 0 -360 c0
-348 1 -362 23 -433 17 -55 27 -72 38 -68 8 3 14 0 14 -8 0 -20 -23 -26 -105
-26 -55 0 -78 4 -90 16 -15 15 -16 68 -13 561 3 470 5 545 18 553 8 5 38 10
67 10 28 0 58 3 67 6 34 13 2 24 -68 24 l-74 0 -6 33 c-7 39 2 1066 10 1078 3
5 45 9 94 9 49 0 119 6 157 14 37 8 100 18 139 21 89 9 524 -13 542 -28 16
-12 340 -3 486 14 107 13 632 9 654 -5 19 -11 333 -10 507 3 85 6 250 9 380 6
290 -7 285 -8 344 112 56 114 63 179 59 539 l-3 289 -28 57 c-33 67 -91 123
-144 137 -62 18 -588 14 -649 -4 -60 -18 -127 -72 -157 -129 -21 -40 -22 -51
-25 -398 -3 -331 -1 -362 18 -441 30 -125 35 -117 -72 -117 -51 0 -98 4 -104
8 -8 5 -4 29 15 82 l26 75 0 375 c0 366 -1 376 -22 415 -12 23 -41 59 -66 82
-65 60 -100 65 -437 61 -257 -3 -289 -5 -324 -22 -47 -24 -101 -78 -130 -131
-20 -38 -21 -55 -24 -354 -3 -259 0 -334 14 -425 10 -61 18 -124 18 -141 l1
-30 -95 4 c-52 2 -96 4 -97 5 0 0 9 42 22 92 22 85 23 115 27 445 l3 354 -28
57 c-33 67 -90 119 -149 138 -32 10 -118 13 -338 11 -270 -2 -298 -4 -340 -22
-60 -27 -107 -73 -136 -134 -24 -50 -24 -53 -24 -391 0 -188 4 -365 10 -393 7
-40 19 -62 50 -94 22 -23 40 -47 40 -54 0 -15 -143 -28 -189 -17 l-36 9 -1
565 c0 311 1 577 3 592 l5 28 226 2 c125 2 326 2 447 1 121 -1 789 -3 1485 -3z
m-1202 -184 c37 -20 68 -54 87 -99 13 -32 15 -75 9 -305 -7 -306 -12 -328 -87
-378 l-42 -29 -285 -6 c-278 -7 -286 -6 -330 15 -28 13 -56 38 -75 64 l-30 44
-3 292 -3 292 29 42 c52 78 47 76 332 83 296 7 360 4 398 -15z m1110 0 c42
-22 101 -93 108 -131 3 -17 4 -148 2 -291 l-3 -259 -27 -41 c-41 -63 -79 -85
-161 -95 -106 -12 -500 -11 -534 2 -38 14 -90 65 -114 111 -17 34 -19 61 -19
303 0 284 4 311 53 363 41 44 54 47 292 53 288 8 365 5 403 -15z m1122 -1 c33
-17 66 -53 78 -85 6 -14 11 -152 13 -305 l4 -280 -25 -43 c-15 -27 -42 -54
-70 -70 l-45 -27 -286 -3 -286 -3 -43 33 c-89 68 -85 51 -85 387 l0 298 28 36
c55 72 51 71 352 77 289 6 326 4 365 -15z m933 -474 l42 -40 3 -153 c4 -176
-3 -209 -53 -258 l-36 -35 -167 -3 c-161 -4 -168 -3 -201 20 -67 45 -76 74
-76 248 0 174 7 199 64 237 32 22 44 23 208 23 l174 0 42 -39z m-3871 -358 c2
-5 19 -17 38 -27 28 -16 67 -21 209 -29 233 -12 427 1 493 34 26 12 51 20 55
16 12 -13 -69 -85 -120 -108 -49 -21 -60 -21 -307 -16 -170 3 -268 9 -293 18
-43 14 -97 70 -97 99 0 19 15 28 22 13z m1911 -21 c-11 -32 -66 -82 -109 -98
-35 -13 -83 -15 -315 -12 -306 3 -329 8 -369 73 -20 33 -30 76 -10 45 5 -8 10
-12 10 -8 0 3 23 -2 50 -13 45 -17 79 -19 338 -19 l288 0 55 28 c58 30 71 31
62 4z m647 -39 l235 -8 -150 -6 c-82 -4 -178 -9 -212 -12 -41 -4 -63 -2 -63 5
0 6 -9 8 -20 5 -11 -3 -23 -1 -26 4 -3 5 -14 9 -25 9 -10 0 -19 5 -19 11 0 7
9 9 23 6 12 -4 128 -10 257 -14z m-1486 -97 c-9 -24 -34 -13 -34 15 0 15 -3
36 -6 46 -4 10 5 3 19 -15 14 -19 23 -40 21 -46z m1127 12 c8 -14 6 -18 -9
-18 -13 0 -21 12 -29 42 l-11 42 19 -24 c11 -14 24 -33 30 -42z m-1401 -8 c0
-5 -8 -10 -17 -10 -15 0 -16 2 -3 10 19 12 20 12 20 0z m4587 -284 c37 -23 67
-60 77 -96 7 -24 7 -24 -8 -5 -37 47 -69 73 -105 83 -28 9 -290 13 -927 15
-972 2 -923 5 -967 -55 -11 -15 -26 -53 -34 -85 l-13 -58 5 58 c8 85 37 132
95 156 16 6 345 9 935 8 880 -2 911 -3 942 -21z m-567 -218 c6 -7 24 -34 40
-60 31 -50 50 -61 50 -29 0 10 -9 21 -20 24 -11 3 -20 11 -19 19 0 9 2 10 6 1
3 -10 10 -9 27 2 13 9 53 17 93 19 77 3 84 -4 47 -46 -29 -33 -74 -96 -74
-103 0 -11 116 85 165 136 48 50 87 63 113 37 18 -18 15 -58 -5 -64 -35 -11
-62 -27 -67 -39 -3 -8 2 -11 12 -8 21 5 86 -43 101 -75 6 -13 11 -43 11 -68 0
-37 -6 -51 -30 -75 -28 -29 -34 -30 -99 -28 -38 2 -69 6 -68 9 1 3 -9 23 -23
43 -25 36 -50 55 -50 37 0 -9 -46 -7 -56 3 -10 10 -56 -18 -93 -57 -40 -41
-76 -47 -111 -18 -31 25 -20 55 28 76 64 29 74 40 63 69 -6 14 -33 51 -61 81
-55 62 -59 77 -30 106 23 23 35 25 50 8z m-952 -49 c3 -34 1 -37 -29 -43 -17
-3 -60 -6 -96 -6 l-64 0 3 -77 3 -78 95 -5 c102 -5 110 -10 96 -66 -6 -23 -9
-24 -110 -24 l-104 0 -30 35 c-35 39 -47 94 -40 185 7 101 36 118 198 116 l75
-1 3 -36z m244 17 c4 -6 8 -23 8 -38 l0 -28 -104 0 c-102 0 -104 1 -110 24 -9
38 2 55 42 59 57 5 156 -5 164 -17z m-125 -123 c60 -1 111 -3 116 -3 4 0 6
-37 4 -82 l-2 -83 -60 2 c-33 1 -61 7 -63 13 -2 5 -24 10 -48 10 -38 0 -44 3
-44 21 0 21 3 22 68 16 37 -3 76 -2 87 2 17 7 -232 23 -322 21 -33 -1 -33 0
-33 48 l0 49 48 2 c26 1 63 5 82 10 27 6 38 4 47 -7 10 -12 39 -16 120 -19z
m3211 -260 l-3 -118 -80 -3 c-131 -5 -125 -10 -125 117 0 127 -9 118 123 120
l88 1 -3 -117z m-304 -44 c7 -68 8 -303 2 -310 -2 -2 -51 -3 -108 -1 l-103 3
1 171 c2 205 -2 198 119 198 l82 0 7 -61z m300 -587 c-1 -227 -5 -416 -9 -420
-9 -9 -140 -15 -170 -8 l-25 6 0 293 c0 160 3 349 7 419 l6 126 96 -1 96 -2
-1 -413z m-606 141 l3 -143 -106 0 -105 0 0 129 c0 71 3 137 6 146 5 13 22 15
103 13 l96 -3 3 -142z m-5873 9 c22 -13 52 -39 65 -59 l25 -37 -3 -275 c-4
-319 -7 -331 -95 -385 l-48 -29 -282 -1 c-247 -1 -286 1 -313 16 -39 21 -102
91 -109 120 -3 13 -5 145 -3 294 l3 271 28 36 c15 21 45 46 65 57 35 19 54 20
332 17 287 -2 296 -3 335 -25z m1008 19 c103 -8 130 -20 170 -73 30 -40 33
-83 27 -360 -6 -289 -4 -283 -89 -343 l-43 -30 -291 3 c-331 3 -335 4 -391 81
l-31 43 0 287 0 288 28 36 c54 71 75 76 312 76 116 0 254 -4 308 -8z m1213
-10 c47 -21 77 -59 93 -116 14 -52 15 -487 0 -538 -14 -50 -59 -101 -116 -128
-44 -21 -52 -22 -312 -17 -300 6 -312 9 -376 79 l-35 39 0 286 c0 304 1 314
52 361 55 52 63 53 368 53 256 0 289 -2 326 -19z m2443 -26 c52 -26 92 -85 90
-132 l-1 -28 -8 26 c-11 38 -39 77 -72 100 -28 21 -39 21 -911 26 -644 4 -893
2 -924 -6 -52 -14 -97 -58 -116 -113 l-15 -43 -1 34 c-1 50 40 114 91 141 l43
22 899 -7 c722 -5 905 -9 925 -20z m911 -205 l0 -110 -105 0 -105 0 0 103 c0
57 3 107 7 110 3 4 51 7 105 7 l98 0 0 -110z m-1052 -31 c2 -9 -13 -26 -35
-41 -21 -14 -62 -44 -91 -67 l-53 -42 36 -25 c25 -16 58 -27 103 -32 61 -6 67
-9 70 -31 5 -35 -42 -71 -85 -64 -23 4 -33 2 -33 -7 0 -9 -9 -5 -23 8 -13 12
-28 22 -34 22 -6 0 -13 3 -15 8 -2 4 -20 22 -40 41 -31 28 -40 32 -52 22 -8
-7 -12 -20 -9 -29 4 -13 3 -14 -5 -3 -7 10 -23 2 -71 -37 -62 -49 -108 -69
-125 -52 -16 15 2 38 79 101 87 72 88 63 -22 151 -38 30 -63 57 -63 69 0 40
73 12 162 -63 l53 -46 50 40 c118 93 128 99 165 96 22 -2 36 -9 38 -19z
m-1223 -29 c76 0 107 -4 118 -14 16 -16 22 -202 7 -211 -15 -9 -171 -27 -235
-27 -70 0 -195 11 -244 21 -41 8 -55 41 -46 111 10 74 16 90 39 103 19 11 214
27 244 20 8 -2 60 -3 117 -3z m613 -126 c13 -4 22 -14 22 -27 0 -41 -25 -46
-215 -47 -99 0 -189 3 -200 6 -31 8 -49 41 -33 59 11 11 51 14 208 14 107 1
205 -2 218 -5z m1650 -86 c-2 -46 -6 -82 -10 -80 -5 1 -46 2 -93 2 l-85 0 0
80 0 80 95 0 96 0 -3 -82z m1249 -477 c-4 -296 -6 -323 -30 -421 -35 -145 -51
-190 -109 -305 -56 -112 -82 -151 -161 -246 -95 -115 -276 -235 -437 -291
-126 -44 -168 -47 -609 -49 -232 0 -425 2 -429 6 -4 4 -6 304 -4 668 1 364 2
727 2 807 l0 145 891 1 891 1 -5 -316z m-7526 173 c7 -8 30 -24 50 -35 35 -17
62 -19 326 -20 l288 0 67 34 c71 37 80 34 56 -18 -7 -16 -35 -37 -77 -58 l-66
-32 -275 0 -275 0 -47 28 c-46 27 -78 69 -78 102 0 19 14 19 31 -1z m1919 -10
c0 -33 -39 -70 -112 -106 l-54 -27 -275 7 -274 7 -48 28 c-44 26 -90 88 -75
102 2 3 31 -8 64 -25 60 -29 60 -29 294 -36 282 -8 360 1 422 45 53 37 58 38
58 5z m387 -30 c35 -11 116 -14 322 -14 270 0 277 1 327 24 28 13 55 29 58 35
12 19 26 12 26 -11 -1 -30 -24 -58 -84 -98 l-49 -33 -256 2 c-288 2 -310 4
-366 36 -50 29 -71 52 -81 89 l-7 30 32 -23 c18 -13 53 -30 78 -37z m-357 -94
c0 -17 -39 -50 -57 -50 -13 0 -9 8 17 30 40 33 40 34 40 20z m1089 -33 c-19
-15 -79 -47 -79 -43 0 8 62 46 74 46 5 0 7 -1 5 -3z m-1329 -68 c68 -10 450
-11 595 -2 148 8 614 10 609 2 -8 -13 73 -15 207 -3 l87 7 5 -249 c3 -137 9
-261 14 -277 5 -16 3 -79 -4 -155 -6 -70 -12 -221 -13 -337 0 -115 -4 -216 -8
-223 -7 -10 -240 -13 -1218 -11 -1179 1 -1381 6 -1474 33 -88 27 -245 96 -298
132 -63 44 -215 207 -300 322 -92 125 -130 215 -157 369 -16 89 -21 368 -7
376 4 3 68 8 142 11 406 17 481 18 620 6 82 -8 227 -12 335 -10 307 7 365 6
366 -5 1 -5 -29 -26 -66 -45 -82 -42 -127 -101 -145 -187 -16 -76 -8 -660 10
-718 14 -45 68 -102 126 -131 35 -17 66 -19 341 -22 l302 -4 59 27 c72 32 115
74 139 135 15 39 18 91 21 366 4 349 1 375 -48 443 -66 91 -109 102 -412 110
-136 4 -250 10 -254 13 -17 18 21 37 79 41 80 6 252 -2 347 -14z m3640 -13
c44 -13 68 -14 144 -5 50 6 111 9 136 7 l45 -3 0 -600 c0 -330 -3 -608 -7
-617 -7 -17 -73 -18 -1192 -18 l-1184 0 -6 63 c-21 239 -25 635 -12 965 l9
212 116 1 c64 1 159 4 211 8 52 3 453 5 891 4 690 -1 804 -4 849 -17z m-3605
-107 c82 -11 124 -37 157 -94 22 -39 23 -47 23 -295 0 -322 -8 -347 -115 -385
-61 -22 -556 -34 -612 -16 -50 17 -85 46 -108 92 -18 35 -20 59 -20 303 0 274
3 301 43 345 55 60 61 61 322 61 132 -1 271 -5 310 -11z m-540 -850 c16 -5
150 -9 298 -9 243 0 273 2 328 20 34 12 63 19 66 16 13 -13 -24 -48 -81 -76
l-64 -32 -274 4 c-298 3 -296 3 -355 66 -37 40 -31 56 15 36 20 -9 50 -20 67
-25z"/>
<path d="M2080 8800 c-91 -9 -150 -29 -255 -83 -108 -57 -280 -226 -344 -340
-55 -97 -95 -215 -111 -328 -16 -107 -8 -332 15 -439 34 -155 140 -324 275
-437 155 -131 301 -187 534 -203 174 -13 1519 -4 1620 11 298 42 524 207 652
475 71 148 79 191 78 409 -1 210 -11 276 -63 412 -80 207 -255 380 -475 471
-143 58 -90 55 -1006 58 -465 1 -879 -2 -920 -6z m1605 -71 c135 -5 171 -10
232 -32 167 -59 308 -162 392 -286 52 -77 125 -226 140 -285 33 -134 31 -417
-3 -528 -35 -113 -137 -281 -213 -349 -64 -58 -181 -130 -259 -160 -122 -48
-195 -51 -1086 -47 -807 5 -814 5 -888 27 -203 60 -390 212 -485 391 -60 116
-78 203 -78 380 0 205 22 314 94 460 46 94 62 115 153 205 77 76 120 110 181
142 148 77 138 76 715 83 665 8 908 8 1105 -1z"/>
<path d="M2470 8609 c-430 -6 -446 -9 -581 -98 -164 -108 -274 -270 -316 -465
-22 -106 -14 -359 15 -440 34 -94 81 -164 164 -248 61 -61 96 -86 170 -123
156 -77 144 -76 1079 -75 798 0 818 1 880 21 190 62 338 200 413 385 65 161
74 398 21 564 -41 130 -81 196 -171 286 -67 67 -99 91 -175 128 -52 25 -119
51 -149 58 -62 13 -738 17 -1350 7z m-211 -455 c17 -22 21 -41 21 -110 l0 -84
-35 0 -35 0 0 70 0 70 -119 0 -120 0 -7 -70 c-4 -47 -11 -70 -19 -70 -8 0 -20
-3 -29 -6 -14 -5 -16 5 -16 71 0 140 19 154 202 155 136 0 137 0 157 -26z
m461 4 c11 -12 20 -26 20 -30 0 -19 -58 -28 -176 -28 l-124 0 0 -74 0 -74 123
-4 c176 -5 195 -23 183 -176 -6 -83 -8 -88 -41 -119 -38 -36 -45 -37 -181 -33
-84 2 -92 0 -121 -24 -41 -34 -52 -33 -51 7 1 17 -2 57 -7 88 l-7 57 36 4 c39
4 56 -10 56 -47 0 -12 7 -15 33 -11 17 3 66 8 108 11 l77 6 5 34 c4 26 -1 113
-7 115 0 1 -58 5 -127 9 -69 4 -131 11 -137 15 -15 9 -16 223 -3 260 13 32 21
33 183 35 129 1 138 0 158 -21z m744 0 c15 -59 19 -58 -139 -58 l-145 0 0 -29
c0 -15 3 -48 6 -73 l6 -45 121 -6 c117 -5 122 -6 145 -33 22 -25 24 -34 20
-130 -3 -97 -4 -104 -32 -133 -35 -37 -96 -47 -211 -34 -75 8 -80 10 -102 42
-29 43 -31 96 -4 111 36 19 50 12 53 -27 l3 -38 91 1 c126 1 124 0 124 83 0
82 2 81 -136 81 -50 0 -106 3 -123 6 l-32 7 3 132 c2 93 7 137 17 148 11 15
37 17 171 17 155 0 158 0 164 -22z m411 10 c48 -22 52 -45 47 -276 l-4 -212
-28 -30 -28 -30 -125 0 -125 0 -25 30 c-32 38 -40 104 -35 312 l3 157 29 30
30 31 117 0 c70 0 129 -5 144 -12z m-1595 -383 c0 -97 -2 -105 -26 -134 l-26
-31 -127 0 c-130 0 -154 6 -188 48 -14 17 -19 247 -5 255 4 3 70 8 147 12 77
4 142 9 144 11 2 2 21 -10 42 -27 l39 -31 0 -103z m718 24 c-3 -48 -2 -49 30
-55 31 -6 32 -8 32 -54 0 -27 -4 -60 -10 -74 -12 -34 -52 -43 -86 -21 -29 18
-29 21 -8 190 8 69 11 76 29 68 13 -4 16 -17 13 -54z m550 -307 c-2 -11 -15
-18 -35 -20 -23 -2 -30 -7 -26 -18 3 -8 2 -39 -2 -69 -5 -40 -11 -55 -22 -55
-13 0 -15 12 -11 70 3 66 2 70 -17 70 -12 0 -26 5 -33 12 -27 27 -12 33 69 30
68 -3 80 -6 77 -20z m126 18 c56 -21 74 -114 30 -155 -48 -44 -115 -25 -137
38 -8 22 13 74 42 105 25 25 30 26 65 12z m-1432 -17 c28 -25 22 -31 -26 -26
-37 5 -46 2 -60 -18 -21 -31 -20 -52 4 -74 18 -17 25 -17 56 -6 44 16 57 6 25
-20 -30 -24 -58 -24 -98 1 -40 24 -50 58 -29 98 30 58 90 80 128 45z m186 -45
c40 -81 49 -118 29 -118 -8 0 -17 9 -20 20 -6 24 -58 28 -77 5 -12 -14 -60
-22 -60 -9 0 13 83 164 90 164 4 0 21 -28 38 -62z m126 40 c3 -13 6 -44 6 -70
l0 -48 45 0 c38 0 45 -3 45 -20 0 -18 -7 -20 -60 -20 l-60 0 0 90 c0 86 11
116 24 68z m770 -5 c22 -44 50 -142 43 -150 -4 -3 -13 1 -20 10 -6 9 -25 21
-40 26 -24 9 -31 7 -53 -14 -14 -14 -29 -25 -34 -25 -18 0 -10 41 13 73 12 18
30 49 39 69 20 45 33 48 52 11z m593 5 c24 -22 31 -62 13 -73 -15 -9 -12 -43
6 -70 10 -15 12 -25 5 -25 -14 0 -51 36 -51 50 0 6 -11 10 -24 10 -17 0 -26
-7 -30 -25 -4 -14 -12 -25 -19 -25 -9 0 -12 24 -12 90 l0 90 44 0 c32 0 51 -6
68 -22z m-1107 -7 c15 -29 14 -30 -30 -24 -35 5 -40 3 -52 -22 -11 -25 -10
-29 11 -46 13 -11 39 -19 58 -19 36 0 41 -15 11 -33 -37 -24 -118 29 -118 78
0 59 95 111 120 66z m270 -7 c6 -14 10 -45 10 -68 0 -43 0 -43 43 -51 38 -6
40 -8 20 -17 -12 -6 -38 -7 -57 -4 -38 7 -40 11 -49 119 -4 36 -1 47 9 47 8 0
19 -12 24 -26z m-147 -106 c6 -4 24 -4 40 -1 23 5 29 3 25 -8 -6 -18 -70 -24
-98 -9 -18 10 -20 17 -14 63 10 81 28 93 32 21 2 -32 8 -62 15 -66z"/>
<path d="M3637 8006 c-3 -51 -3 -139 0 -195 l6 -101 98 0 99 0 0 58 c0 33 3
120 7 195 l6 137 -105 0 -105 0 -6 -94z"/>
<path d="M1980 7786 l0 -73 68 -7 c38 -4 87 -4 110 0 l42 7 0 73 0 74 -110 0
-110 0 0 -74z"/>
<path d="M3618 7473 c-28 -32 -31 -60 -9 -82 12 -12 28 -21 36 -21 22 0 55 37
55 61 0 54 -50 79 -82 42z"/>
<path d="M2370 7436 c-13 -17 -3 -26 31 -26 20 0 27 4 23 14 -7 19 -41 27 -54
12z"/>
<path d="M3285 7440 c-8 -13 3 -30 21 -30 18 0 18 14 0 29 -10 8 -16 9 -21 1z"/>
<path d="M3843 7483 c-22 -8 -14 -43 11 -55 33 -14 56 -4 56 26 0 30 -31 44
-67 29z"/>
<path d="M3432 6723 c-5 -16 -17 -49 -27 -75 -9 -26 -21 -50 -26 -53 -14 -9
-11 -65 4 -65 7 0 18 9 25 20 16 26 60 26 89 -1 21 -20 23 -21 29 -5 4 10 -3
38 -14 64 -12 26 -30 68 -41 95 -11 26 -22 47 -24 47 -3 0 -9 -12 -15 -27z
m18 -93 c0 -20 -5 -30 -14 -30 -12 0 -13 6 -5 30 6 17 13 30 15 30 2 0 4 -13
4 -30z"/>
<path d="M1565 6721 c3 -11 3 -32 -1 -47 l-7 -28 -31 36 c-17 19 -41 38 -53
42 -21 7 -21 5 -20 -88 2 -81 5 -96 20 -99 14 -4 17 2 17 41 l1 47 47 -53 c26
-29 50 -52 54 -52 4 0 9 44 10 98 l3 97 22 -48 c12 -26 30 -72 39 -102 10 -30
23 -55 31 -55 16 0 46 57 67 129 18 63 21 101 5 101 -9 0 -24 -29 -51 -100 -9
-24 -11 -23 -43 34 -31 55 -36 59 -75 62 -37 4 -41 2 -35 -15z"/>
<path d="M1806 6724 c-8 -21 -8 -133 0 -173 7 -32 7 -32 63 -29 48 3 56 6 56
23 0 15 -8 21 -30 23 -53 6 -57 42 -4 42 26 0 29 2 19 19 -5 11 -20 21 -32 23
-13 2 -24 11 -26 21 -3 13 4 17 31 17 23 0 37 6 41 16 10 26 -3 34 -59 34 -39
0 -54 -4 -59 -16z"/>
<path d="M1978 6730 c-9 -6 -22 -26 -28 -45 -15 -45 -5 -59 56 -74 59 -15 53
-36 -9 -35 -53 0 -57 -7 -22 -41 46 -47 96 -22 111 53 7 34 -15 60 -57 69 -63
12 -41 47 24 36 31 -5 36 -3 32 9 -12 31 -74 47 -107 28z"/>
<path d="M2107 6734 c-14 -14 -6 -35 16 -43 21 -8 25 -18 31 -82 3 -40 9 -75
12 -78 13 -13 24 29 24 90 0 63 1 67 26 73 17 5 24 12 22 24 -3 13 -16 18 -64
20 -33 2 -63 0 -67 -4z"/>
<path d="M2265 6726 c-15 -10 -16 -24 -10 -104 6 -66 11 -92 21 -92 7 0 16 16
20 37 l7 36 27 -33 27 -33 37 39 38 39 -6 -30 c-6 -37 9 -68 23 -46 11 17 23
153 15 174 -10 28 -47 20 -77 -18 -15 -19 -32 -35 -38 -35 -5 0 -17 16 -26 35
-19 40 -35 48 -58 31z"/>
<path d="M2656 6699 c-10 -60 4 -169 20 -169 17 0 18 22 4 70 l-10 34 55 -54
54 -53 11 28 c6 16 10 60 8 99 -2 57 -6 71 -20 74 -14 3 -17 -6 -20 -50 l-3
-53 -39 58 c-21 31 -42 57 -46 57 -4 0 -10 -18 -14 -41z"/>
<path d="M3244 6721 c-61 -37 -67 -130 -12 -176 36 -30 57 -31 92 -4 37 29 32
40 -16 37 -35 -3 -44 1 -54 20 -7 14 -9 35 -5 50 7 24 13 27 51 27 50 0 60 15
31 44 -26 26 -47 26 -87 2z"/>
<path d="M3540 6647 c0 -112 5 -119 82 -115 41 2 54 7 56 21 3 14 -4 17 -43
17 -40 0 -47 3 -55 26 -6 14 -10 47 -10 73 0 31 -5 53 -15 61 -13 11 -15 1
-15 -83z"/>
<path d="M4020 6663 c-26 -90 -34 -103 -65 -103 -26 0 -35 30 -35 116 0 41 -4
54 -15 54 -8 0 -15 -3 -15 -7 -6 -86 -6 -174 -1 -182 4 -6 35 -9 74 -8 l68 2
11 40 c15 52 28 67 28 31 0 -19 11 -38 33 -58 54 -51 48 -11 -20 155 -9 20
-21 37 -28 37 -7 0 -22 -35 -35 -77z"/>
<path d="M1374 6714 c3 -9 6 -51 6 -95 0 -63 3 -81 16 -86 28 -10 33 10 27
105 -6 89 -7 92 -31 92 -18 0 -23 -4 -18 -16z"/>
<path d="M2497 6724 c-4 -4 -7 -47 -7 -95 0 -99 0 -99 86 -99 39 0 54 4 54 14
0 14 -29 26 -66 26 -27 0 -34 17 -34 81 l0 50 32 -3 c42 -4 51 -34 14 -48 -39
-14 -34 -42 7 -38 26 2 32 7 33 28 1 14 3 39 5 55 l4 30 -60 3 c-34 2 -64 0
-68 -4z"/>
<path d="M2817 6724 c-13 -13 -7 -22 17 -28 22 -5 25 -13 31 -73 9 -93 9 -94
20 -96 6 -1 11 32 13 80 3 81 3 82 30 85 16 2 27 9 27 18 0 12 -15 16 -65 18
-36 2 -69 0 -73 -4z"/>
<path d="M3826 6708 c-3 -13 -6 -49 -6 -80 0 -53 -2 -58 -22 -58 -70 1 -89 29
-65 98 16 47 13 54 -20 41 -21 -7 -23 -15 -23 -71 0 -54 4 -66 27 -90 33 -35
81 -38 109 -7 15 16 20 40 23 105 2 51 -1 84 -7 84 -5 0 -12 -10 -16 -22z"/>
<path d="M4120 6714 c0 -9 14 -21 30 -27 28 -11 30 -15 31 -67 1 -30 4 -66 8
-80 7 -22 9 -20 14 20 4 25 8 63 9 85 3 33 7 41 26 43 14 2 22 10 22 23 0 17
-8 19 -70 19 -57 0 -70 -3 -70 -16z"/>
<path d="M4426 6722 c-2 -4 -2 -48 2 -97 7 -91 24 -122 37 -66 4 17 10 31 15
31 4 0 22 -17 38 -37 25 -31 33 -36 43 -25 11 10 10 18 -4 41 -22 37 -22 59 0
84 17 18 16 20 -15 48 -24 22 -42 29 -72 29 -21 0 -41 -4 -44 -8z m94 -47 c10
-12 10 -16 -1 -19 -39 -14 -54 -10 -57 12 -3 18 1 22 21 22 14 0 30 -7 37 -15z"/>
<path d="M4282 6707 c-15 -17 -26 -90 -19 -119 7 -26 52 -78 68 -78 6 0 24 13
40 29 34 34 39 88 15 146 -14 32 -19 35 -54 35 -22 0 -44 -6 -50 -13z m84 -52
c15 -37 10 -59 -20 -84 -11 -10 -20 -10 -37 -1 -18 10 -21 18 -16 53 5 37 27
67 49 67 5 0 16 -16 24 -35z"/>
<path d="M5348 8830 c-37 -5 -90 -16 -118 -25 -150 -50 -316 -232 -366 -400
-16 -54 -18 -113 -17 -620 0 -626 0 -624 72 -780 29 -63 51 -92 99 -136 67
-61 238 -151 326 -172 38 -10 192 -12 611 -11 l561 2 99 37 c180 67 225 98
294 200 41 61 65 108 96 191 l25 67 2 556 c1 551 1 557 -21 636 -32 111 -61
169 -125 246 -89 109 -232 190 -367 209 -77 11 -1075 11 -1171 0z m222 -80 c0
-5 -24 -10 -52 -10 -33 0 -48 -4 -40 -9 11 -7 10 -10 -3 -15 -9 -3 -26 -7 -38
-7 -17 -1 -15 -3 8 -9 28 -7 28 -8 5 -9 -20 -1 -22 -3 -10 -11 11 -7 7 -10
-18 -10 -18 0 -59 -9 -92 -20 -32 -11 -67 -17 -77 -14 -15 5 -16 4 -3 -5 17
-12 17 -12 -27 -14 -23 -2 -29 1 -21 10 11 14 1 36 -13 27 -5 -3 -7 -10 -4
-15 4 -5 -3 -9 -14 -9 -10 0 -22 6 -25 13 -3 6 -4 -1 0 -17 5 -26 3 -28 -10
-17 -17 15 -31 8 -69 -34 l-18 -20 10 20 c24 49 120 123 196 150 69 25 315 44
315 25z m277 -17 c9 -19 10 -29 2 -34 -19 -11 33 -19 138 -19 96 0 101 1 96
20 -4 13 -14 20 -30 20 -13 0 -31 7 -39 15 -14 13 15 15 258 13 157 -1 245 -4
208 -8 -36 -4 -57 -7 -47 -8 15 -2 16 -6 7 -22 -6 -11 -8 -24 -5 -29 3 -5 -20
-8 -52 -6 -32 3 -96 5 -143 5 -64 0 -81 3 -70 11 12 9 12 10 -3 5 -10 -3 -28
-6 -40 -7 -21 0 -21 -1 -2 -9 23 -10 -376 -11 -415 -1 -32 8 -40 41 -9 41 16
0 20 5 16 20 -5 18 0 20 56 20 57 0 63 -2 74 -27z m755 -3 c21 -6 40 -15 42
-19 5 -7 -27 1 -84 22 -26 10 4 7 42 -3z m181 -114 c31 -30 57 -58 57 -62 0
-4 -8 0 -18 9 -10 10 -22 14 -27 10 -4 -5 -6 -3 -2 2 5 10 -69 87 -108 113
-11 7 -6 6 10 -2 17 -8 56 -40 88 -70z m-1266 68 c-3 -3 -12 -4 -19 -1 -8 3
-5 6 6 6 11 1 17 -2 13 -5z m1343 -174 c0 -5 -5 -10 -11 -10 -5 0 -7 5 -4 10
3 6 8 10 11 10 2 0 4 -4 4 -10z m-60 -25 c14 -19 14 -19 -2 -6 -10 7 -18 18
-18 24 0 6 1 8 3 6 1 -2 9 -13 17 -24z m99 -20 c16 -9 50 -127 60 -205 5 -41
12 -298 16 -571 6 -495 6 -495 -16 -555 -32 -86 -97 -192 -150 -244 -63 -62
-194 -126 -284 -138 -38 -5 -315 -8 -615 -7 -623 2 -599 0 -734 88 -107 72
-146 111 -195 201 -77 138 -76 135 -74 546 2 409 11 643 23 648 5 2 6 11 3 20
-4 13 -2 12 11 -3 17 -20 17 -20 13 3 -3 12 -1 22 4 22 5 0 9 9 9 19 0 11 5
23 10 26 6 3 10 12 10 18 0 7 -4 6 -11 -3 -8 -12 -9 -11 -7 5 2 12 10 19 20
17 9 -1 18 7 21 20 4 12 9 19 12 16 3 -3 -1 -23 -10 -44 -20 -49 -36 -358 -37
-729 -1 -294 9 -369 66 -490 58 -123 183 -236 309 -278 59 -20 85 -22 531 -25
281 -2 503 1 553 7 110 14 194 54 279 133 80 75 138 186 154 293 5 39 10 278
10 540 0 430 -2 476 -19 536 -10 36 -26 81 -35 100 -16 32 -16 33 0 14 16 -20
16 -20 11 5 l-6 25 20 -24 c21 -25 25 -21 9 9 -9 16 -7 18 10 15 11 -2 24 -6
29 -10z m-156 -48 c34 -26 46 -74 47 -174 l0 -73 -89 0 c-49 0 -96 -3 -105 -6
-14 -5 -16 8 -16 113 0 128 6 148 50 156 58 10 86 6 113 -16z m-265 -372 l0
-256 -106 3 c-59 2 -106 6 -104 11 1 4 2 117 2 252 l0 245 104 0 104 0 0 -255z
m-314 63 c3 -29 6 -119 6 -199 0 -125 -2 -148 -16 -153 -9 -3 -59 -6 -111 -6
l-96 0 6 122 c4 66 7 156 7 199 l0 78 33 4 c17 2 62 5 98 5 l66 2 7 -52z m455
-5 c-13 -15 -12 -15 8 -5 20 11 21 10 17 -15 -3 -15 -11 -34 -17 -42 -9 -12
-9 -13 1 -7 7 4 12 1 12 -9 0 -9 -4 -13 -10 -10 -5 3 -10 -1 -10 -10 0 -9 -4
-13 -10 -10 -12 7 -13 -36 -3 -86 l6 -33 12 39 12 40 8 -37 c5 -28 12 -38 26
-38 11 0 19 6 19 13 0 8 4 7 10 -3 5 -8 10 -10 11 -5 1 6 4 -3 8 -20 3 -16 14
-31 23 -33 13 -2 15 2 11 20 -4 21 -3 20 10 -4 8 -15 18 -41 22 -59 l7 -32
-53 6 c-30 4 -77 7 -106 7 l-52 0 0 175 -1 175 26 0 c24 0 25 -2 13 -17z m46
-73 c3 -5 1 -10 -4 -10 -6 0 -11 5 -11 10 0 6 2 10 4 10 3 0 8 -4 11 -10z
m-830 -10 c-11 -5 -14 -9 -8 -9 16 -1 17 -310 1 -345 -13 -30 -34 -36 -120
-36 l-68 0 0 193 c0 107 3 197 7 200 3 4 52 7 107 6 66 0 94 -3 81 -9z m782
-87 c-3 -10 -5 -4 -5 12 0 17 2 24 5 18 2 -7 2 -21 0 -30z m120 -75 c-2 -13
-4 -3 -4 22 0 25 2 35 4 23 2 -13 2 -33 0 -45z m-1212 -48 c-11 -5 -15 -9 -10
-9 6 -1 11 -47 13 -110 l3 -108 -68 -6 c-37 -4 -85 -7 -107 -7 -35 0 -38 2
-32 23 3 12 6 68 6 125 l0 102 108 -1 c69 0 100 -3 87 -9z m955 -187 c0 -49
-3 -104 -6 -123 l-6 -35 -96 0 c-54 0 -100 5 -104 10 -10 12 -10 219 -1 228 3
4 53 7 110 7 l103 0 0 -87z m248 58 l52 -1 -2 -82 -2 -83 -5 75 c-5 58 -9 75
-21 75 -10 0 -14 -8 -12 -24 2 -15 0 -21 -7 -17 -6 4 -11 -1 -12 -11 0 -12 -2
-14 -6 -4 -5 11 -7 11 -15 0 -7 -10 -8 -6 -4 14 4 15 2 27 -4 27 -5 0 -10 -12
-11 -27 0 -25 -1 -26 -10 -8 -7 16 -9 14 -6 -13 2 -18 0 -35 -5 -38 -5 -3 -6
-10 -3 -15 4 -5 3 -15 -2 -21 -5 -9 -10 -3 -14 17 l-7 30 -1 -27 c0 -16 -5
-28 -10 -28 -5 0 -7 19 -4 43 3 23 2 39 -2 35 -8 -8 -12 -30 -14 -85 0 -18 -5
-33 -11 -33 -6 0 -10 41 -10 103 l0 104 48 -3 c26 -1 71 -3 100 -3z m-565
-238 c-7 -256 -11 -290 -36 -285 -10 2 -17 -6 -19 -20 -2 -18 -10 -24 -34 -26
-22 -2 -34 -9 -37 -23 -3 -12 -17 -22 -36 -25 -22 -5 -33 -14 -37 -31 -10 -38
3 -106 22 -120 16 -12 16 -13 -8 -13 l-26 0 -4 357 c-2 196 -2 371 0 390 l4
33 109 0 109 0 -7 -237z m594 175 c-3 -7 -5 -2 -5 12 0 14 2 19 5 13 2 -7 2
-19 0 -25z m-917 -303 l0 -235 -99 0 c-86 0 -100 2 -105 18 -6 22 -6 434 0
444 3 5 50 8 105 8 l99 0 0 -235z m-361 158 l54 -5 -6 -100 c-3 -55 -10 -105
-16 -111 -6 -6 -11 -21 -11 -32 0 -12 -9 -30 -20 -40 -11 -10 -20 -22 -20 -27
0 -15 -43 -68 -56 -68 -6 0 -17 -7 -24 -15 -7 -8 -16 -12 -21 -9 -5 3 -10 -5
-10 -18 -5 -76 -17 105 -18 254 -1 195 -2 192 64 181 17 -2 54 -7 84 -10z
m798 -325 c-1 -40 -3 -8 -3 72 0 80 2 112 3 73 2 -40 2 -106 0 -145z m-624
-148 c2 -21 9 -34 17 -32 8 2 11 -6 8 -27 -4 -27 -1 -30 26 -34 22 -3 17 -4
-16 -5 l-48 -2 0 72 c0 75 5 87 13 28z m657 -91 c0 -5 -9 -9 -20 -9 -11 0 -20
6 -20 14 0 9 7 12 20 9 11 -3 20 -9 20 -14z m145 1 c-3 -5 -16 -10 -28 -9 -20
1 -20 2 3 9 14 4 26 8 28 9 2 1 0 -3 -3 -9z m-102 -7 c-7 -2 -19 -2 -25 0 -7
3 -2 5 12 5 14 0 19 -2 13 -5z"/>
<path d="M5695 8700 c3 -5 20 -10 36 -10 18 0 28 4 24 10 -3 6 -20 10 -36 10
-18 0 -28 -4 -24 -10z"/>
<path d="M6730 7816 c0 -2 9 -6 20 -9 11 -3 20 -1 20 4 0 5 -9 9 -20 9 -11 0
-20 -2 -20 -4z"/>
<path d="M5705 6465 c-54 -19 -120 -91 -135 -146 -17 -63 -5 -381 17 -423 22
-45 43 -66 86 -88 35 -17 56 -19 241 -16 l203 3 35 27 c20 15 47 49 59 75 23
45 24 58 24 244 l0 195 -27 41 c-18 28 -44 49 -80 66 -48 23 -69 26 -218 31
-127 4 -174 2 -205 -9z m387 -88 c55 -38 63 -61 66 -209 4 -156 -4 -187 -65
-228 -35 -24 -44 -25 -202 -28 l-166 -3 -29 27 c-48 46 -57 81 -55 226 1 148
6 168 51 210 l32 30 170 -4 c145 -3 175 -6 198 -21z"/>
<path d="M5765 6170 c-4 -6 -4 -22 -1 -36 6 -24 7 -24 142 -24 l135 0 -3 33
-3 32 -132 3 c-87 2 -134 -1 -138 -8z"/>
<path d="M6477 6456 c-45 -17 -70 -37 -108 -90 l-29 -39 0 -194 c0 -210 6
-238 62 -290 48 -45 86 -53 266 -53 93 0 184 3 201 6 48 10 116 76 135 130 21
62 33 323 17 380 -16 60 -51 106 -101 134 -43 24 -54 25 -225 28 -135 1 -189
-1 -218 -12z m158 -85 c-114 -5 -134 -9 -162 -29 -17 -12 -34 -32 -36 -45 l-4
-22 -2 22 c-1 14 12 33 36 52 l38 31 130 -2 130 -2 -130 -5z m172 3 c-3 -3
-12 -4 -19 -1 -8 3 -5 6 6 6 11 1 17 -2 13 -5z m88 -14 c3 -6 -1 -7 -9 -4 -18
7 -21 14 -7 14 6 0 13 -4 16 -10z m33 -55 c-3 -3 -9 2 -12 12 -6 14 -5 15 5 6
7 -7 10 -15 7 -18z m-485 -325 c3 -11 1 -18 -4 -14 -5 3 -9 12 -9 20 0 20 7
17 13 -6z"/>
<path d="M6495 5689 c-51 -12 -110 -59 -135 -109 -17 -33 -20 -63 -22 -232
l-3 -193 28 -47 c58 -99 114 -118 344 -118 155 0 184 6 241 55 58 49 74 94 84
245 15 235 -12 317 -123 373 -53 26 -65 28 -215 32 -87 2 -177 0 -199 -6z
m385 -94 c59 -35 70 -70 70 -229 0 -153 -12 -196 -66 -247 -24 -22 -34 -24
-147 -26 -67 -1 -140 -4 -162 -6 -22 -3 -46 0 -53 5 -7 6 -15 8 -19 5 -3 -3
-18 0 -33 8 -47 24 -55 62 -55 252 0 192 4 206 75 245 31 17 53 19 195 16 139
-3 165 -6 195 -23z"/>
<path d="M6677 5393 l-168 -3 3 -36 3 -35 183 -3 182 -3 0 38 c0 24 -5 39 -16
43 -9 3 -16 5 -17 4 -1 -1 -78 -4 -170 -5z"/>
<path d="M5684 5671 c-50 -23 -98 -80 -114 -135 -8 -28 -11 -103 -8 -217 3
-164 4 -177 28 -217 13 -24 45 -58 70 -75 l45 -30 170 -5 c240 -6 276 6 330
115 30 57 30 61 33 244 4 172 2 189 -17 226 -25 50 -70 89 -119 103 -20 5
-113 10 -207 10 -144 0 -176 -3 -211 -19z m432 -88 c13 -14 26 -36 29 -47 8
-41 12 -281 4 -306 -5 -18 -7 -8 -8 35 -1 33 -6 67 -12 75 -8 11 -9 -1 -6 -45
2 -33 2 -49 0 -37 -4 23 -5 23 -18 5 -13 -17 -14 -17 -15 0 0 9 5 17 10 17 6
0 10 16 10 36 0 21 -4 33 -10 29 -5 -3 -10 -1 -10 5 0 6 -4 8 -10 5 -5 -3 -10
2 -11 12 0 16 -1 16 -9 -2 -7 -17 -9 -18 -9 -2 -1 30 -44 37 -172 30 l-120 -6
3 -31 c2 -24 11 -35 38 -48 19 -10 28 -18 20 -18 -13 0 -13 -1 0 -10 13 -8 13
-10 -2 -10 -11 0 -19 -11 -23 -34 -13 -69 21 -100 61 -54 19 21 19 21 -2 16
-17 -4 -20 -1 -16 18 4 20 10 24 43 24 32 0 39 -3 39 -20 0 -26 22 -26 39 1 8
15 15 18 20 11 5 -8 17 -9 41 -2 37 11 61 -6 37 -25 -6 -5 -12 -16 -13 -22 -1
-7 -2 -24 -2 -38 -1 -16 -8 -25 -19 -26 -16 0 -15 -2 2 -10 35 -16 -266 2
-307 18 -63 25 -68 41 -68 229 0 151 2 170 21 200 12 21 33 37 52 43 18 5 108
10 200 10 l168 1 25 -27z m-9 -385 c-3 -8 -6 -5 -6 6 -1 11 2 17 5 13 3 -3 4
-12 1 -19z m-7 -54 c0 -2 -7 -4 -15 -4 -8 0 -15 4 -15 10 0 5 7 7 15 4 8 -4
15 -8 15 -10z"/>
<path d="M6111 5374 c0 -11 3 -14 6 -6 3 7 2 16 -1 19 -3 4 -6 -2 -5 -13z"/>
<path d="M5735 5140 c3 -5 8 -10 11 -10 2 0 4 5 4 10 0 6 -5 10 -11 10 -5 0
-7 -4 -4 -10z"/>
<path d="M5760 5139 c0 -5 5 -7 10 -4 6 3 10 8 10 11 0 2 -4 4 -10 4 -5 0 -10
-5 -10 -11z"/>
<path d="M6971 3874 c0 -11 3 -14 6 -6 3 7 2 16 -1 19 -3 4 -6 -2 -5 -13z"/>
<path d="M1535 4931 c-79 -19 -168 -101 -190 -175 -18 -59 -21 -565 -5 -706
l9 -85 59 -56 c38 -37 72 -61 97 -68 22 -5 164 -14 315 -20 151 -5 306 -15
343 -22 53 -10 76 -10 101 -1 46 17 252 16 267 -1 13 -14 69 -11 69 4 0 5 9 9
20 9 11 0 20 5 20 10 0 6 -12 10 -27 10 -18 0 -24 3 -17 10 6 6 23 6 44 1 19
-5 157 -12 305 -16 149 -4 279 -8 290 -8 11 0 22 -3 25 -7 3 -3 82 -2 175 2
107 5 181 4 201 -3 52 -16 174 -13 187 5 10 13 53 16 298 18 256 3 287 5 303
21 10 9 21 17 25 17 4 0 22 14 39 31 18 17 32 27 33 23 0 -5 10 16 22 46 20
52 21 76 25 393 3 281 1 347 -12 390 -17 58 -72 129 -118 153 -42 22 -268 36
-498 32 -180 -3 -186 -4 -231 -30 -59 -35 -102 -84 -124 -141 -15 -40 -16 -81
-12 -393 4 -317 6 -356 25 -424 12 -41 22 -76 22 -78 0 -1 -51 -2 -114 -1 -63
0 -119 -1 -123 -4 -5 -3 -14 -2 -21 2 -8 5 -1 18 23 41 l35 34 1 -30 c1 -16
10 21 20 81 17 96 19 151 17 425 -3 309 -3 316 -27 369 -28 61 -102 127 -154
136 -18 3 -167 7 -332 8 -340 2 -340 2 -422 -80 -72 -71 -76 -98 -70 -496 4
-331 11 -412 39 -442 6 -6 7 -2 2 10 -5 14 6 7 34 -19 23 -22 41 -41 39 -42
-1 -1 -17 1 -35 4 -17 4 -88 5 -157 2 -135 -5 -144 -1 -99 41 l26 24 -7 -25
c-5 -17 -4 -22 3 -15 6 6 18 48 26 94 20 105 23 709 4 772 -6 22 -27 57 -46
79 -55 65 -95 80 -245 90 -154 11 -459 11 -502 1z m654 -104 c29 -19 49 -43
63 -74 19 -43 20 -62 16 -308 l-3 -262 -29 -37 c-15 -20 -46 -49 -69 -64 l-40
-27 -267 -3 c-289 -4 -328 1 -381 45 -64 54 -69 79 -69 366 0 233 2 261 19
295 21 41 42 62 86 86 26 14 69 16 331 14 l301 -3 42 -28z m2183 23 c44 -13
93 -66 107 -117 6 -22 11 -145 11 -291 0 -270 -2 -283 -52 -328 -62 -57 -71
-59 -368 -59 -312 0 -318 1 -377 73 l-38 46 -3 268 c-4 309 1 331 79 387 l42
31 281 0 c160 0 297 -5 318 -10z m-1449 -7 c-7 -2 -21 -2 -30 0 -10 3 -4 5 12
5 17 0 24 -2 18 -5z m324 1 c-3 -3 -12 -4 -19 -1 -8 3 -5 6 6 6 11 1 17 -2 13
-5z m-667 -68 c0 -3 -4 -8 -10 -11 -5 -3 -10 -1 -10 4 0 6 5 11 10 11 6 0 10
-2 10 -4z m378 -176 c-56 -10 -71 -18 -64 -35 2 -7 -2 -21 -10 -32 -15 -17
-15 -17 -10 7 3 14 6 35 6 48 0 21 4 22 63 21 l62 -1 -47 -8z m-21 -56 c-3 -3
-12 -4 -19 -1 -8 3 -5 6 6 6 11 1 17 -2 13 -5z m-64 -149 c-3 -9 -8 -14 -10
-11 -3 3 -2 9 2 15 9 16 15 13 8 -4z m187 -5 c0 -11 -2 -20 -4 -20 -2 0 -6 9
-9 20 -3 11 -1 20 4 20 5 0 9 -9 9 -20z m-221 -187 c2 -2 -3 -3 -11 -3 -9 0
-19 7 -22 16 -6 15 -4 15 11 3 10 -7 20 -15 22 -16z m149 -20 c-21 -2 -57 -2
-80 0 -24 2 -7 4 37 4 44 0 63 -2 43 -4z m-1432 -193 c29 -9 118 -11 300 -8
l259 4 63 28 c34 16 65 26 69 23 14 -14 -29 -55 -94 -88 l-70 -36 -256 -2
c-277 -2 -279 -2 -346 55 -31 25 -43 51 -18 39 6 -4 4 0 -5 8 -34 27 -18 37
20 13 20 -13 55 -30 78 -36z m2149 39 c11 -17 -1 -21 -15 -4 -8 9 -8 15 -2 15
6 0 14 -5 17 -11z m775 -4 c0 -29 -117 -65 -148 -46 -9 5 3 10 35 15 26 3 62
15 78 25 37 24 35 24 35 6z m-635 -45 l70 -7 -80 -2 c-53 0 -86 3 -94 12 -11
10 -13 10 -7 0 4 -7 3 -13 -2 -13 -12 0 -23 26 -15 33 3 3 17 1 32 -5 14 -6
58 -14 96 -18z m-190 -80 c21 -22 25 -30 13 -30 -20 0 -48 27 -48 46 0 19 2
18 35 -16z"/>
<path d="M1893 4704 c-11 -5 -167 -177 -250 -277 -41 -48 -46 -101 -10 -111
12 -3 75 -6 140 -6 l117 0 0 -44 c0 -46 10 -56 55 -56 22 0 24 5 27 58 l3 57
35 3 c43 4 62 19 58 46 -2 16 -12 22 -43 26 l-40 5 4 153 3 152 -43 -1 c-24 0
-49 -3 -56 -5z m0 -209 l-8 -90 -72 -3 c-42 -2 -73 1 -73 7 0 5 14 22 30 38
17 15 52 59 78 97 26 37 48 62 50 55 1 -8 -1 -54 -5 -104z"/>
<path d="M3962 4701 c-65 -41 -96 -138 -71 -222 10 -33 11 -43 1 -47 -8 -2
-12 -26 -12 -65 0 -72 22 -116 72 -147 46 -28 185 -28 245 -1 52 24 71 53 83
127 8 50 7 62 -10 91 -17 29 -18 35 -5 60 36 69 24 132 -35 188 -29 28 -35 30
-133 33 -89 3 -106 0 -135 -17z m188 -84 c28 -14 37 -46 21 -76 -13 -24 -75
-36 -137 -26 -43 6 -44 7 -44 44 0 21 6 43 13 49 28 23 110 28 147 9z m11
-197 c14 -8 19 -21 19 -54 0 -56 -16 -69 -90 -74 -53 -4 -61 -2 -85 22 -21 21
-26 34 -23 64 3 35 5 37 43 43 66 10 115 10 136 -1z"/>
<path d="M2286 2723 c-6 -14 -5 -15 5 -6 7 7 10 15 7 18 -3 3 -9 -2 -12 -12z"/>
<path d="M1824 5873 c-3 -10 -9 -27 -12 -38 -4 -11 -6 -116 -4 -232 l3 -213
43 0 43 0 6 68 c4 37 7 149 7 250 l0 182 -40 0 c-30 0 -42 -5 -46 -17z"/>
<path d="M2778 5830 c-1 -33 -2 -68 -2 -77 -1 -14 8 -19 36 -21 37 -3 38 -2
44 37 l7 41 91 0 c111 0 124 -6 107 -48 -21 -51 -44 -64 -121 -70 l-70 -5 -10
-35 c-5 -19 -7 -38 -5 -42 2 -4 46 -10 97 -13 98 -6 118 -17 118 -62 0 -48
-22 -60 -119 -63 l-91 -4 -6 32 c-6 29 -9 31 -48 28 -40 -3 -41 -4 -44 -41 -7
-84 51 -113 204 -104 148 9 194 48 194 164 0 55 -3 64 -26 82 -15 12 -33 21
-42 21 -9 0 -1 14 22 40 35 39 36 42 36 120 l0 80 -185 0 -185 0 -2 -60z"/>
<path d="M3906 5892 c-8 -14 -19 -200 -12 -226 12 -48 47 -60 164 -57 117 2
122 0 122 -60 0 -53 -23 -69 -103 -69 -71 0 -87 11 -87 60 0 19 -5 21 -57 18
l-58 -3 2 -42 c2 -53 16 -79 56 -103 27 -17 51 -20 147 -20 128 0 141 6 179
70 30 50 30 154 0 186 l-21 22 22 30 c20 27 22 39 18 105 -3 40 -8 79 -12 85
-8 14 -351 17 -360 4z m280 -108 c4 -15 3 -39 -2 -53 -9 -25 -13 -26 -97 -29
l-87 -3 0 49 c0 27 3 52 7 55 3 4 44 7 89 7 82 0 84 -1 90 -26z"/>
<path d="M4958 5390 c-2 -7 -2 -26 0 -42 l4 -28 156 2 156 3 7 29 c5 17 6 32
4 34 -2 3 -76 7 -163 10 -125 4 -160 2 -164 -8z"/>
<path d="M3848 5133 c7 -3 16 -2 19 1 4 3 -2 6 -13 5 -11 0 -14 -3 -6 -6z"/>
<path d="M6626 4373 c-14 -35 -6 -74 17 -84 20 -8 19 -9 -6 -4 -19 4 -26 2
-22 -5 3 -5 17 -10 31 -10 31 0 44 32 31 76 -11 35 -42 51 -51 27z"/>
<path d="M5535 4300 c3 -5 8 -10 11 -10 2 0 4 5 4 10 0 6 -5 10 -11 10 -5 0
-7 -4 -4 -10z"/>
<path d="M1647 3524 c-4 -4 -7 -25 -7 -46 l0 -38 146 0 c80 0 144 -3 142 -7
-1 -5 -41 -64 -87 -132 -121 -180 -159 -271 -112 -271 59 0 83 13 101 54 9 23
63 117 119 211 63 106 101 180 101 197 l0 28 -177 0 c-98 0 -187 3 -198 6 -11
3 -24 2 -28 -2z"/>
<path d="M2784 3519 c-3 -6 -9 -57 -11 -113 l-6 -102 32 -27 c18 -15 38 -27
44 -27 179 -3 189 -5 208 -29 37 -45 12 -96 -56 -111 -70 -16 -141 4 -147 42
-2 18 -10 24 -39 26 -43 4 -52 -11 -38 -62 13 -47 59 -83 115 -92 63 -9 173 3
209 24 66 38 86 148 39 217 l-25 38 22 23 c48 51 15 169 -53 193 -41 15 -285
15 -294 0z m266 -89 c15 -23 12 -67 -6 -84 -11 -12 -36 -16 -94 -16 -70 0 -79
2 -85 20 -8 25 4 82 19 93 20 14 156 3 166 -13z"/>
<path d="M4025 3531 c-89 -16 -128 -58 -133 -145 -4 -64 -4 -64 38 -110 l43
-46 108 0 109 0 0 -44 c0 -58 -24 -76 -101 -76 -66 0 -104 23 -114 71 -6 28
-9 30 -38 23 -18 -3 -35 -8 -39 -11 -16 -9 -7 -61 15 -94 34 -51 87 -73 177
-73 86 0 141 21 174 66 23 33 28 138 7 176 -10 20 -10 30 4 59 31 65 0 154
-63 187 -34 17 -134 26 -187 17z m156 -101 c5 -8 8 -33 7 -55 -4 -49 -29 -65
-110 -65 -71 0 -88 15 -88 76 0 37 4 46 23 54 34 15 156 7 168 -10z"/>
<path d="M5198 3293 c-39 -3 -48 -8 -48 -23 0 -10 5 -22 12 -26 8 -5 9 -2 5 9
-3 10 -2 17 3 17 6 0 10 -7 10 -15 0 -13 26 -15 171 -15 165 0 172 1 199 24
l28 23 -106 7 c-105 6 -185 6 -274 -1z"/>
<path d="M7897 2844 c-138 -33 -298 -147 -393 -279 -86 -121 -124 -284 -105
-456 16 -149 62 -249 160 -353 132 -138 306 -216 486 -216 300 0 591 239 674
555 18 68 13 212 -10 295 -59 216 -244 391 -474 450 -93 24 -249 26 -338 4z
m132 -116 c0 -29 -4 -75 -7 -102 l-7 -49 -59 -14 c-32 -7 -74 -22 -92 -34 -79
-48 -170 -184 -181 -271 l-6 -38 -98 0 c-113 0 -107 -8 -84 102 45 218 194
372 420 434 117 33 115 33 114 -28z m162 38 c74 -16 151 -51 220 -102 50 -37
80 -78 35 -49 -23 15 -25 15 -47 -17 -12 -18 -38 -50 -57 -71 l-34 -39 20 -21
c11 -12 27 -38 36 -57 16 -34 16 -34 -1 -10 -63 89 -178 170 -241 170 -24 0
-24 2 -18 46 3 26 6 73 6 105 0 33 3 59 8 59 4 0 37 -7 73 -14z m-171 -355 c0
-159 -27 -191 -162 -191 -86 0 -88 1 -88 24 0 67 55 161 118 200 35 21 109 54
125 55 4 1 7 -39 7 -88z m110 59 c13 -8 13 -10 -2 -10 -9 0 -19 -6 -21 -12 -3
-7 -6 -3 -6 10 -1 24 6 27 29 12z m90 -45 c39 -29 87 -97 96 -138 10 -48 -3
-41 -20 11 -17 49 -84 128 -123 143 -14 6 -15 8 -2 8 8 1 30 -10 49 -24z
m-123 -42 c-3 -10 -5 -2 -5 17 0 19 2 27 5 18 2 -10 2 -26 0 -35z m-407 -262
c0 -49 29 -102 92 -167 60 -63 117 -96 191 -109 l37 -7 0 -109 0 -109 -42 6
c-119 18 -232 78 -334 179 -80 79 -119 146 -140 244 -23 108 -29 101 91 101
l105 0 0 -29z m247 3 c15 -15 46 -35 68 -45 35 -16 42 -16 74 -3 19 8 49 25
66 38 41 31 195 49 195 23 0 -59 -72 -139 -164 -183 -62 -30 -75 -33 -130 -28
-81 8 -122 20 -177 55 -51 33 -93 87 -104 137 l-7 32 76 0 c67 0 78 -3 103
-26z m700 12 c0 0 -10 -36 -23 -78 -59 -187 -203 -327 -407 -398 -132 -46
-127 -48 -127 69 l0 98 33 6 c77 13 152 50 199 99 48 50 108 159 108 196 0 20
4 21 108 15 59 -3 108 -6 109 -7z"/>
<path d="M8295 2500 c3 -5 8 -10 11 -10 2 0 4 5 4 10 0 6 -5 10 -11 10 -5 0
-7 -4 -4 -10z"/>
<path d="M1555 2585 c-55 -14 -127 -57 -159 -95 -38 -46 -51 -102 -50 -230 1
-135 9 -190 29 -190 22 0 35 64 42 202 7 148 23 188 88 222 38 20 55 21 340
21 334 0 351 -3 398 -69 22 -30 22 -37 21 -312 0 -268 -1 -282 -21 -315 -31
-50 -63 -76 -108 -88 -56 -15 -417 -25 -487 -14 -32 6 -58 8 -58 6 0 -2 26
-16 58 -31 55 -25 65 -27 268 -30 124 -3 231 0 260 6 27 6 50 9 52 7 2 -2 -4
-15 -15 -28 -26 -36 -75 -57 -146 -63 -86 -7 -177 -25 -177 -35 0 -14 71 -24
170 -24 106 0 149 16 204 74 16 17 32 28 36 26 4 -2 16 30 26 73 17 67 19 114
18 377 -1 187 -5 315 -12 340 -23 81 -114 156 -209 171 -68 10 -525 10 -568
-1z"/>
<path d="M3764 2584 c-51 -17 -109 -58 -137 -96 -51 -70 -52 -79 -52 -448 0
-337 1 -346 23 -395 26 -59 91 -108 162 -124 25 -6 170 -11 323 -11 278 0 278
0 328 25 75 39 122 91 143 161 15 48 19 106 23 310 6 289 -3 369 -48 454 -32
60 -65 85 -150 114 -61 21 -560 29 -615 10z m643 -97 c18 -9 44 -37 58 -60
l25 -44 0 -264 0 -265 -30 -48 c-23 -36 -43 -53 -85 -72 l-54 -25 -278 3
c-271 3 -279 4 -310 26 -18 12 -43 37 -55 55 -23 32 -23 36 -23 317 0 321 -2
313 79 372 l40 29 301 -3 c264 -3 304 -5 332 -21z m-469 -847 c95 -4 175 -10
179 -14 3 -3 -8 -6 -24 -6 -17 0 -33 -5 -35 -10 -5 -16 -237 -25 -280 -11 -30
10 -88 60 -88 75 0 3 17 -2 38 -11 26 -11 87 -18 210 -23z"/>
<path d="M3957 2339 c-45 -24 -77 -72 -77 -116 0 -36 13 -46 73 -57 37 -7 37
-7 37 27 0 46 20 60 91 65 72 5 89 -6 89 -59 0 -51 -18 -66 -138 -111 -129
-49 -147 -68 -146 -155 1 -93 0 -93 216 -93 l179 0 -3 48 -3 47 -132 3 c-73 1
-133 6 -133 10 0 4 53 36 117 72 63 36 123 76 132 90 11 16 16 47 16 96 0 63
-3 76 -25 99 -38 42 -80 55 -172 55 -63 -1 -92 -6 -121 -21z"/>
<path d="M1800 2339 c-39 -16 -110 -90 -110 -116 0 -29 5 -29 71 2 30 13 74
25 98 27 61 4 71 -16 71 -152 0 -146 -2 -150 -59 -150 -55 0 -74 -11 -69 -36
2 -14 13 -20 42 -22 34 -3 43 1 71 33 27 30 36 52 50 128 27 148 30 199 11
235 -28 55 -108 78 -176 51z"/>
<path d="M2286 1584 c-4 -14 -5 -28 -3 -31 3 -2 8 8 11 23 4 14 5 28 3 31 -3
2 -8 -8 -11 -23z"/>
<path d="M6250 2561 c-79 -25 -151 -89 -185 -163 -23 -52 -24 -60 -26 -359
l-3 -306 27 -55 c20 -41 40 -64 79 -90 97 -66 81 -63 378 -66 308 -4 308 -4
397 67 43 34 55 52 72 104 31 88 43 241 39 456 -5 220 -19 272 -92 339 -74 68
-112 75 -406 78 -140 2 -266 -1 -280 -5z m610 -106 c22 -13 44 -39 60 -70 24
-49 25 -54 24 -266 -1 -119 -4 -233 -8 -253 -8 -44 -56 -100 -107 -127 -35
-17 -61 -19 -292 -19 -286 0 -320 6 -378 66 l-34 35 -3 264 c-3 284 -1 296 51
346 49 47 64 49 367 46 265 -2 287 -3 320 -22z m-630 -786 c28 -15 67 -23 126
-27 l86 -5 -39 -13 c-62 -22 -144 -18 -184 9 -19 12 -35 30 -37 40 -4 22 -1
21 48 -4z m680 17 c0 -10 -85 -66 -99 -65 -12 0 -13 2 -2 6 11 5 11 7 0 14
-10 6 0 14 31 28 44 19 70 25 70 17z m-123 -42 c-3 -3 -12 -4 -19 -1 -8 3 -5
6 6 6 11 1 17 -2 13 -5z"/>
<path d="M6432 2230 c-59 -43 -76 -74 -76 -135 1 -65 25 -107 83 -146 48 -31
82 -36 120 -15 16 9 45 12 88 8 62 -5 63 -4 63 21 0 15 -9 32 -22 41 -29 21
-105 21 -125 0 -19 -19 -59 -11 -90 18 -40 38 -40 133 1 160 6 4 37 8 69 8 52
0 58 -2 67 -25 18 -46 85 -25 110 34 23 57 14 61 -123 61 -122 0 -125 -1 -165
-30z"/>
<path d="M4988 2551 c-82 -17 -173 -109 -204 -206 -21 -68 -30 -385 -15 -524
9 -87 17 -115 44 -165 39 -71 92 -112 164 -125 27 -6 203 -11 390 -12 336 -2
341 -2 384 20 60 31 77 48 105 104 53 103 59 150 59 447 0 263 -1 277 -22 315
-28 52 -88 110 -138 132 -36 16 -77 18 -385 20 -190 1 -362 -2 -382 -6z m730
-77 c32 -6 102 -73 119 -111 9 -24 13 -84 12 -220 -1 -254 -6 -283 -55 -334
-21 -23 -61 -52 -89 -65 -50 -24 -53 -24 -390 -24 l-341 0 -40 26 c-22 14 -51
42 -64 62 -25 35 -25 37 -25 281 l0 246 27 47 c28 46 76 84 124 97 28 7 685 3
722 -5z m112 -731 c-20 -62 -59 -111 -109 -135 -45 -23 -50 -23 -371 -20 -179
2 -343 8 -364 13 -46 12 -108 71 -100 94 8 19 3 20 57 -10 l45 -26 339 -2
c338 -2 338 -2 386 22 31 15 62 42 85 73 40 53 50 50 32 -9z"/>
<path d="M5157 2143 l-88 -4 3 -52 3 -52 140 -6 c77 -3 141 -5 143 -4 2 2 4
29 5 61 l2 59 -60 1 c-33 0 -100 -1 -148 -3z"/>
<path d="M5442 2083 l3 -56 90 2 c49 1 92 4 94 6 2 3 6 27 9 55 l5 50 -102 0
-102 0 3 -57z"/>
<path d="M2841 2342 c-44 -22 -70 -57 -78 -104 -6 -40 -1 -45 70 -62 24 -6 27
-4 27 18 0 14 4 36 10 50 9 25 13 26 84 26 82 0 106 -13 106 -55 0 -37 -37
-72 -150 -140 -58 -34 -112 -73 -121 -86 -10 -13 -20 -50 -23 -81 l-6 -57 192
-3 c106 -2 194 -3 195 -3 1 0 3 18 5 40 l3 40 -133 5 c-76 3 -133 9 -134 15
-2 10 33 34 158 110 90 55 109 83 109 163 0 62 -1 65 -38 97 -43 38 -72 45
-171 45 -48 0 -82 -6 -105 -18z"/>
</g>
</svg>
